<?xml version="1.0" encoding="utf-8"?>
<!-- Generator: Adobe Illustrator 17.0.0, SVG Export Plug-In . SVG Version: 6.00 Build 0)  -->
<!DOCTYPE svg PUBLIC "-//W3C//DTD SVG 1.1//EN" "http://www.w3.org/Graphics/SVG/1.1/DTD/svg11.dtd">
<svg version="1.1" id="Layer_1" xmlns="http://www.w3.org/2000/svg" xmlns:xlink="http://www.w3.org/1999/xlink" x="0px" y="0px"
	 width="624.006px" height="130.468px" viewBox="0 0 624.006 130.468" enable-background="new 0 0 624.006 130.468"
	 xml:space="preserve">
<g>
	<g>
		
			<rect x="73.763" y="43.496" transform="matrix(0.5 0.866 -0.866 0.5 79.2175 -40.5534)" fill="#FFFFFF" width="1.933" height="9.664"/>
		
			<rect x="36.422" y="66.688" transform="matrix(0.866 -0.5 0.5 0.866 -28.3004 29.6906)" fill="#FFFFFF" width="9.664" height="1.933"/>
		
			<rect x="57.025" y="53.159" transform="matrix(0.5 0.866 -0.866 0.5 79.2175 -21.2262)" fill="#FFFFFF" width="1.933" height="9.663"/>
		<path fill="#FFFFFF" d="M115.973,57.991h-0.007c0.009-9.854-2.479-19.843-7.761-28.991C92.193,1.268,56.732-8.233,29,7.778
			C1.268,23.789-8.233,59.25,7.778,86.982c10.73,18.584,30.194,28.965,50.213,28.984v0.007h28.991
			c16.011,0,28.991,6.49,28.991,14.495v-14.495V57.991z M20.857,80.547l8.327-4.807L28.7,74.902
			C18.026,56.414,24.36,32.774,42.848,22.1c18.206-10.511,41.38-4.503,52.277,13.336l-8.327,4.807l0.483,0.837
			c10.674,18.488,4.34,42.129-14.148,52.803C54.928,104.394,31.754,98.385,20.857,80.547z"/>
	</g>
	<g>
		<g>
			<path fill="#FFFFFF" d="M164.49,70.727c0-3.256,1.168-6.053,3.504-8.39c2.336-2.336,5.132-3.504,8.389-3.504v28.246
				c0,7.835-2.809,14.524-8.424,20.069c-5.617,5.546-12.342,8.319-20.176,8.319c-7.882,0-14.63-2.773-20.247-8.319
				c-5.616-5.545-8.424-12.234-8.424-20.069V58.833c3.256,0,6.053,1.168,8.389,3.504c2.336,2.336,3.504,5.133,3.504,8.39v16.353
				c0,4.672,1.628,8.696,4.885,12.069c3.256,3.375,7.221,5.063,11.893,5.063c4.625,0,8.566-1.7,11.822-5.097
				c3.256-3.399,4.885-7.409,4.885-12.035V70.727z"/>
			<path fill="#FFFFFF" d="M223.294,115.467c-7.834,0-14.56-2.749-20.176-8.247c-5.616-5.497-8.424-12.164-8.424-20
				c0-7.834,2.808-14.524,8.424-20.069c5.616-5.545,12.342-8.319,20.176-8.319h16.707c0,3.115-1.097,5.77-3.292,7.965
				c-2.195,2.194-4.849,3.291-7.964,3.291h-5.451c-4.672,0-8.649,1.688-11.928,5.063c-3.281,3.375-4.92,7.397-4.92,12.069
				c0,4.672,1.639,8.672,4.92,11.999c3.279,3.328,7.256,4.992,11.928,4.992h5.451c3.115,0,5.769,1.096,7.964,3.291
				c2.194,2.195,3.292,4.849,3.292,7.965H223.294z"/>
			<path fill="#FFFFFF" d="M255.305,115.467h-11.893V58.833c3.256,0,6.053,1.168,8.389,3.504s3.504,5.133,3.504,8.39v11.397h7.194
				c4.625,0,8.566-1.698,11.822-5.097c3.256-3.398,4.885-7.409,4.885-12.035v-6.159h9.865v6.159c0,4.531-1.027,8.791-3.08,12.778
				c-2.052,3.99-4.896,7.328-8.53,10.017c3.634,2.69,6.478,6.03,8.53,10.017c2.053,3.99,3.08,8.224,3.08,12.707v4.956h-9.865v-4.956
				c0-4.625-1.628-8.636-4.885-12.035c-3.256-3.398-7.198-5.097-11.822-5.097h-7.194V115.467z"/>
			<path fill="#FFFFFF" d="M369.844,126.121c-2.336,2.336-5.132,3.504-8.388,3.504V87.22c0-7.834,2.82-14.524,8.46-20.069
				c5.639-5.545,12.376-8.319,20.21-8.319c7.834,0,14.584,2.774,20.247,8.319s8.495,12.235,8.495,20.069
				c0,7.835-2.82,14.502-8.459,20c-5.642,5.497-12.402,8.247-20.283,8.247h-16.778v2.266
				C373.348,120.989,372.18,123.784,369.844,126.121z M390.126,104.211c4.672,0,8.626-1.664,11.858-4.992
				c3.233-3.327,4.849-7.327,4.849-11.999c0-4.672-1.616-8.695-4.849-12.069c-3.232-3.375-7.185-5.063-11.858-5.063
				c-4.672,0-8.624,1.688-11.856,5.063c-3.233,3.375-4.849,7.397-4.849,12.069v16.991H390.126z"/>
			<path fill="#FFFFFF" d="M480.881,87.22v28.246h-28.742c-7.835,0-14.573-2.749-20.211-8.247c-5.64-5.497-8.46-12.164-8.46-20
				c0-7.834,2.82-14.524,8.46-20.069c5.639-5.545,12.376-8.319,20.211-8.319c7.834,0,14.583,2.774,20.246,8.319
				C478.05,72.697,480.881,79.387,480.881,87.22z M468.846,104.211V87.22c0-4.672-1.62-8.695-4.861-12.069
				c-3.239-3.375-7.2-5.063-11.882-5.063c-4.682,0-8.643,1.688-11.882,5.063c-3.241,3.375-4.859,7.397-4.859,12.069
				c0,4.672,1.619,8.672,4.859,11.999c3.239,3.328,7.2,4.992,11.882,4.992H468.846z"/>
			<path fill="#FFFFFF" d="M531.128,58.833c0,3.115-1.097,5.77-3.292,7.965c-2.195,2.194-4.849,3.291-7.965,3.291h-11.326v45.378
				c-3.256,0-6.052-1.168-8.388-3.504c-2.336-2.336-3.504-5.133-3.504-8.39V70.089h-11.326c-3.115,0-5.77-1.097-7.965-3.291
				c-2.195-2.195-3.292-4.849-3.292-7.965H531.128z"/>
			<path fill="#FFFFFF" d="M553.135,115.467c-7.835,0-14.561-2.749-20.177-8.247c-5.617-5.497-8.424-12.164-8.424-20
				c0-7.834,2.807-14.524,8.424-20.069c5.616-5.545,12.342-8.319,20.177-8.319h16.706c0,3.115-1.096,5.77-3.291,7.965
				c-2.195,2.194-4.849,3.291-7.965,3.291h-5.45c-4.672,0-8.649,1.688-11.93,5.063c-3.279,3.375-4.92,7.397-4.92,12.069
				c0,4.672,1.64,8.672,4.92,11.999c3.281,3.328,7.258,4.992,11.93,4.992h5.45c3.115,0,5.77,1.096,7.965,3.291
				c2.195,2.195,3.291,4.849,3.291,7.965H553.135z"/>
			<path fill="#FFFFFF" d="M624.006,115.467c-3.256,0-6.053-1.168-8.39-3.504c-2.336-2.336-3.504-5.133-3.504-8.39V92.742h-26.404
				v22.724c-3.256,0-6.053-1.168-8.39-3.504c-2.336-2.336-3.504-5.133-3.504-8.39v-44.74c3.256,0,6.053,1.168,8.39,3.504
				c2.336,2.336,3.504,5.133,3.504,8.39v10.831h26.404V58.833c3.304,0,6.112,1.157,8.424,3.47c2.313,2.312,3.47,5.12,3.47,8.424
				V115.467z"/>
		</g>
		<path fill="#FFFFFF" d="M339.753,74.129c0.274-1.897,1.93-4,6.163-4.041h10.884c6.195,0,11.217-5.022,11.217-11.217v-0.038h-0.002
			h-22.43h-1.474c-10.626-0.084-15.938,6.206-15.938,17.164c0,4.025,1.452,7.285,3.704,10.303
			c3.23,4.331,11.658,7.418,10.859,13.105c-0.438,3.117-2.926,4.525-8.156,4.733h-10.352c-5.873,0-10.699,4.476-11.257,10.203
			l0.006,1.127h21.914c0.223,0,0.43-0.016,0.65-0.019c6.313-0.098,11.149-1.598,14.478-4.526c3.444-3.029,5.167-7.512,5.167-13.447
			c0-4.524-1.085-6.951-3.829-10.397C348.651,83.677,338.98,79.477,339.753,74.129z"/>
		<g>
			<path fill="#FFFFFF" d="M188.041,62.337c-2.336-2.336-5.132-3.504-8.389-3.504v7.165c3.256,0,6.053,1.168,8.389,3.504
				c2.336,2.336,3.504,5.133,3.504,8.39v-7.165C191.545,67.47,190.377,64.673,188.041,62.337z"/>
			<path fill="#FFFFFF" d="M179.652,69.172v34.401c0,3.256,1.168,6.053,3.504,8.39c2.336,2.336,5.132,3.504,8.389,3.504V81.066
				c0-3.256-1.168-6.053-3.504-8.39C185.705,70.34,182.909,69.172,179.652,69.172z"/>
		</g>
	</g>
</g>
</svg>
